HIERARCHY
ROOT Hips
{
	OFFSET 0.000000 0.000000 0.000000
	CHANNELS 6 Xposition Yposition Zposition Zrotation Yrotation Xrotation 
	JOINT LHipJoint
	{
		OFFSET 0.000000 0.000000 0.000000
		CHANNELS 3 Zrotation Yrotation Xrotation
		JOINT LeftUpLeg
		{
			OFFSET 1.363060 -1.794630 0.839290
			CHANNELS 3 Zrotation Yrotation Xrotation
			JOINT LeftLeg
			{
				OFFSET 2.448110 -6.726130 0.000000
				CHANNELS 3 Zrotation Yrotation Xrotation
				JOINT LeftFoot
				{
					OFFSET 2.562200 -7.039590 0.000000
					CHANNELS 3 Zrotation Yrotation Xrotation
					JOINT LeftToeBase
					{
						OFFSET 0.157640 -0.433110 2.322550
						CHANNELS 3 Zrotation Yrotation Xrotation
						End Site
						{
							OFFSET 0.000000 0.000000 0.000000
						}
					}
				}
			}
		}
	}
	JOINT RHipJoint
	{
		OFFSET 0.000000 0.000000 0.000000
		CHANNELS 3 Zrotation Yrotation Xrotation
		JOINT RightUpLeg
		{
			OFFSET -1.305520 -1.794630 0.839290
			CHANNELS 3 Zrotation Yrotation Xrotation
			JOINT RightLeg
			{
				OFFSET -2.542530 -6.985550 0.000000
				CHANNELS 3 Zrotation Yrotation Xrotation
				JOINT RightFoot
				{
					OFFSET -2.568260 -7.056230 0.000000
					CHANNELS 3 Zrotation Yrotation Xrotation
					JOINT RightToeBase
					{
						OFFSET -0.164730 -0.452590 2.363150
						CHANNELS 3 Zrotation Yrotation Xrotation
						End Site
						{
							OFFSET 0.000000 0.000000 0.000000
						}
					}
				}
			}
		}
	}
	JOINT LowerBack
	{
		OFFSET 0.000000 0.000000 0.000000
		CHANNELS 3 Zrotation Yrotation Xrotation
		JOINT Spine
		{
			OFFSET 0.028270 2.035590 -0.193380
			CHANNELS 3 Zrotation Yrotation Xrotation
			JOINT Spine1
			{
				OFFSET 0.056720 2.048850 -0.042750
				CHANNELS 3 Zrotation Yrotation Xrotation
				JOINT Neck
				{
					OFFSET 0.000000 0.000000 0.000000
					CHANNELS 3 Zrotation Yrotation Xrotation
					JOINT Neck1
					{
						OFFSET -0.054170 1.746240 0.172020
						CHANNELS 3 Zrotation Yrotation Xrotation
						JOINT Head
						{
							OFFSET 0.104070 1.761360 -0.123970
							CHANNELS 3 Zrotation Yrotation Xrotation
							End Site
							{
								OFFSET 0.000000 0.000000 0.000000
							}
						}
					}
				}
				JOINT LeftShoulder
				{
					OFFSET 0.000000 0.000000 0.000000
					CHANNELS 3 Zrotation Yrotation Xrotation
					JOINT LeftArm
					{
						OFFSET 3.362410 1.200890 -0.311210
						CHANNELS 3 Zrotation Yrotation Xrotation
						JOINT LeftForeArm
						{
							OFFSET 4.983000 -0.000000 -0.000000
							CHANNELS 3 Zrotation Yrotation Xrotation
							JOINT LeftHand
							{
								OFFSET 3.483560 -0.000000 -0.000000
								CHANNELS 3 Zrotation Yrotation Xrotation
								JOINT LeftFingerBase
								{
									OFFSET 0.000000 0.000000 0.000000
									CHANNELS 3 Zrotation Yrotation Xrotation
									JOINT LeftHandIndex1
									{
										OFFSET 0.715260 -0.000000 -0.000000
										CHANNELS 3 Zrotation Yrotation Xrotation
										End Site
										{
											OFFSET 0.000000 0.000000 0.000000
										}
									}
								}
								JOINT LThumb
								{
									OFFSET 0.000000 0.000000 0.000000
									CHANNELS 3 Zrotation Yrotation Xrotation
									End Site
									{
										OFFSET 0.000000 0.000000 0.000000
									}
								}
							}
						}
					}
				}
				JOINT RightShoulder
				{
					OFFSET 0.000000 0.000000 0.000000
					CHANNELS 3 Zrotation Yrotation Xrotation
					JOINT RightArm
					{
						OFFSET -3.136600 1.374050 -0.404650
						CHANNELS 3 Zrotation Yrotation Xrotation
						JOINT RightForeArm
						{
							OFFSET -5.241900 -0.000000 -0.000000
							CHANNELS 3 Zrotation Yrotation Xrotation
							JOINT RightHand
							{
								OFFSET -3.444170 -0.000000 -0.000000
								CHANNELS 3 Zrotation Yrotation Xrotation
								JOINT RightFingerBase
								{
									OFFSET 0.000000 0.000000 0.000000
									CHANNELS 3 Zrotation Yrotation Xrotation
									JOINT RightHandIndex1
									{
										OFFSET -0.622530 -0.000000 -0.000000
										CHANNELS 3 Zrotation Yrotation Xrotation
										End Site
										{
											OFFSET 0.000000 0.000000 0.000000
										}
									}
								}
								JOINT RThumb
								{
									OFFSET 0.000000 0.000000 0.000000
									CHANNELS 3 Zrotation Yrotation Xrotation
									End Site
									{
										OFFSET 0.000000 0.000000 0.000000
									}
								}
							}
						}
					}
				}
			}
		}
	}
}
MOTION
Frames: 12
Frame Time: 0.008333
-12.793973 18.142856 -4.466874 -33.069073 -71.988016 39.713899 -0.564817 -1.352964 -1.405019 -2.607591 -2.947160 -19.522620 7.083428 16.152955 50.464518 1.133740 -5.216670 11.313309 0.677300 -5.262100 -14.657700 -0.212253 0.956652 -1.613211 33.898469 7.766431 -9.961216 -0.227540 -5.520100 13.845129 2.075386 -14.041426 -1.749227 -1.199300 -6.948500 19.562900 7.675942 -1.698061 0.806156 2.067379 -2.035772 -5.129694 5.292297 -1.406674 -1.266782 -15.158077 -15.316384 -7.478540 11.217528 -18.828183 2.230891 4.732100 -9.223000 6.572300 7.009502 2.350659 1.036807 -99.178497 13.825459 -24.276516 4.183868 -18.357653 -1.522458 2.319318 2.640343 44.920981 4.829791 25.554441 1.905800 -7.125000 0.000000 0.000000 -23.590900 50.536500 -3.382300 -3.778304 -2.597500 -1.310523 86.417091 3.116976 19.317995 -22.083056 37.385793 -7.948253 -0.652091 0.088054 0.115461 -20.851494 -32.284889 11.193100 7.125000 0.000000 0.000000 14.898300 -63.587200 -6.791500 
-12.903339 18.142557 -4.445140 -33.494939 -72.109920 40.175545 -0.549277 -1.366506 -1.442376 -2.316987 -2.986155 -20.334285 7.119770 16.166860 50.508189 1.032435 -4.577155 10.332191 0.691700 -5.316800 -14.814300 -0.212429 0.954045 -1.604448 34.069919 7.797508 -9.572758 -0.228585 -5.523181 13.867367 2.066995 -13.955772 -2.058373 -1.160600 -6.839400 19.240400 7.692749 -1.659493 0.940103 2.057372 -1.972087 -5.099856 5.252685 -1.379852 -1.245079 -15.169168 -15.339962 -7.468567 11.290459 -18.858707 2.187078 4.756500 -9.235500 6.565900 6.974681 2.346203 1.054835 -99.124157 14.162172 -23.319753 4.400303 -18.763482 -1.559792 2.205948 2.681424 44.054189 4.506361 25.142822 1.776900 -7.125000 0.000000 0.000000 -23.648100 50.161700 -3.164400 -3.774139 -2.598850 -1.292866 86.987885 2.980535 18.235391 -20.669491 35.899964 -7.107861 -0.661229 0.095953 0.287066 -20.567544 -32.501833 11.086800 7.125000 0.000000 0.000000 15.422900 -63.725400 -7.086100 
-13.011709 18.142059 -4.422509 -33.904385 -72.236336 40.630138 -0.535986 -1.380632 -1.478385 -2.037395 -3.035844 -21.114147 7.118240 16.152078 50.421310 0.928610 -3.911771 9.388941 0.697000 -5.336600 -14.871100 -0.212135 0.951179 -1.595482 34.221754 7.830902 -9.193308 -0.229478 -5.525728 13.887776 2.058438 -13.872352 -2.365567 -1.122800 -6.730900 18.920600 7.709426 -1.620504 1.069893 2.045785 -1.907944 -5.072194 5.206471 -1.352872 -1.226760 -15.178152 -15.362332 -7.455618 11.362860 -18.888306 2.145243 4.780600 -9.247700 6.559400 6.936651 2.343565 1.071881 -99.060100 14.483257 -22.291339 4.649283 -19.213688 -1.603740 2.093145 2.719311 43.119607 4.232711 24.743223 1.668100 -7.125000 0.000000 0.000000 -23.671900 49.804700 -2.951100 -3.767980 -2.601585 -1.274851 87.505614 2.863783 17.119336 -19.355050 34.444306 -6.350629 -0.670877 0.104880 0.557207 -20.285920 -32.659716 10.962700 7.125000 0.000000 0.000000 15.898300 -63.805600 -7.339700 
-13.119280 18.141162 -4.398881 -34.298319 -72.367593 41.078935 -0.524994 -1.395363 -1.513033 -1.768542 -3.094983 -21.859590 7.078132 16.108059 50.201203 0.822183 -3.227012 8.492735 0.693700 -5.324200 -14.835600 -0.211373 0.948045 -1.586273 34.354489 7.865912 -8.822467 -0.229949 -5.526965 13.903873 2.049475 -13.791590 -2.667330 -1.084700 -6.619500 18.592900 7.725296 -1.580986 1.193645 2.032722 -1.843366 -5.046922 5.154689 -1.325474 -1.211516 -15.184667 -15.383459 -7.438638 11.431777 -18.917381 2.106232 4.803400 -9.260000 6.552600 6.896020 2.342674 1.087781 -98.986902 14.786971 -21.215633 4.927404 -19.699247 -1.653747 1.983168 2.752738 42.135189 4.015834 24.360061 1.581100 -7.125000 0.000000 0.000000 -23.658900 49.469100 -2.745300 -3.760053 -2.605725 -1.256788 87.970041 2.761981 15.977403 -18.134537 33.025119 -5.669744 -0.680743 0.114826 0.926702 -20.003276 -32.762591 10.820800 7.125000 0.000000 0.000000 16.329100 -63.831600 -7.553800 
-13.226254 18.140165 -4.374257 -34.680068 -72.504626 41.523448 -0.516330 -1.410707 -1.546291 -1.510286 -3.161190 -22.565529 6.998522 16.033558 49.844925 0.714013 -2.534644 7.643304 0.685400 -5.293200 -14.746800 -0.210123 0.944602 -1.576812 34.468359 7.901253 -8.456820 -0.229996 -5.526357 13.914804 2.039967 -13.711116 -2.964047 -1.046800 -6.506400 18.260900 7.741001 -1.540828 1.312129 2.018170 -1.778149 -5.023918 5.097206 -1.297643 -1.199463 -15.189462 -15.403169 -7.419127 11.497460 -18.945413 2.071976 4.825000 -9.272000 6.546500 6.853363 2.343609 1.102289 -98.904680 15.069566 -20.119900 5.231115 -20.210785 -1.709485 1.877896 2.781139 41.120962 3.856943 23.998248 1.515400 -7.125000 0.000000 0.000000 -23.610800 49.158800 -2.550700 -3.750715 -2.611210 -1.238929 88.381661 2.671258 14.817398 -17.002895 31.648154 -5.059114 -0.690537 0.125816 1.393940 -19.718667 -32.810935 10.661600 7.125000 0.000000 0.000000 16.714500 -63.803900 -7.726200 
-13.332630 18.138869 -4.348535 -35.045694 -72.646816 41.960555 -0.510107 -1.426728 -1.578183 -1.262889 -3.235538 -23.230577 6.879992 15.927912 49.352303 0.604537 -1.839478 6.853683 0.672600 -5.244500 -14.607200 -0.208374 0.940902 -1.567054 34.562723 7.936716 -8.097612 -0.229514 -5.524084 13.920473 2.029797 -13.630311 -3.256473 -1.009500 -6.392900 17.928900 7.755160 -1.500651 1.423709 2.002198 -1.713417 -5.003444 5.035083 -1.269943 -1.190986 -15.192604 -15.420863 -7.395617 11.559630 -18.971808 2.041851 4.845500 -9.283500 6.540500 6.809394 2.346326 1.115243 -98.813313 15.328915 -19.027902 5.555179 -20.738139 -1.770154 1.778733 2.803736 40.098723 3.755949 23.656892 1.469800 -7.125000 0.000000 0.000000 -23.527600 48.872800 -2.367400 -3.740248 -2.617937 -1.221564 88.741938 2.586467 13.648667 -15.956245 30.320108 -4.513287 -0.700016 0.137784 1.954174 -19.436490 -32.811772 10.490500 7.125000 0.000000 0.000000 17.054200 -63.731200 -7.858800 
-13.438706 18.137373 -4.321916 -35.400893 -72.793137 42.396086 -0.506223 -1.443458 -1.608797 -1.023641 -3.316052 -23.854240 6.723334 15.790368 48.724443 0.494845 -1.150089 6.134485 0.654900 -5.176100 -14.411400 -0.206104 0.936907 -1.556942 34.639792 7.973118 -7.743880 -0.228613 -5.520056 13.921185 2.018736 -13.548852 -3.544712 -0.972400 -6.277900 17.593000 7.769758 -1.460664 1.528129 1.985102 -1.649525 -4.985733 4.968258 -1.242467 -1.186251 -15.194201 -15.436502 -7.368967 11.617824 -18.996157 2.017162 4.864900 -9.294300 6.535200 6.764436 2.350676 1.126617 -98.713381 15.564933 -17.951002 5.897053 -21.276645 -1.835615 1.686370 2.821277 39.075911 3.709118 23.340272 1.442600 -7.125000 0.000000 0.000000 -23.414000 48.613600 -2.198300 -3.728823 -2.625769 -1.204971 89.052242 2.505348 12.478352 -14.989289 29.044396 -4.026121 -0.708939 0.150788 2.603347 -19.158445 -32.763758 10.309000 7.125000 0.000000 0.000000 17.343900 -63.612700 -7.948300 
-13.544384 18.135579 -4.294201 -35.746473 -72.945035 42.831785 -0.504714 -1.460974 -1.638192 -0.792956 -3.401478 -24.436560 6.530192 15.620198 47.963874 0.385813 -0.473879 5.492508 0.633700 -5.093400 -14.175200 -0.203309 0.932656 -1.546444 34.698626 8.011055 -7.397376 -0.227389 -5.514644 13.917843 2.006602 -13.464585 -3.827821 -0.935600 -6.161400 17.253300 7.783471 -1.420880 1.623671 1.966917 -1.586290 -4.970918 4.897286 -1.215207 -1.185020 -15.192918 -15.449589 -7.340925 11.670276 -19.018356 1.999718 4.882100 -9.304200 6.531100 6.718613 2.356506 1.136436 -98.604255 15.778567 -16.890238 6.254593 -21.824113 -1.905914 1.601103 2.835529 38.050474 3.710177 23.057866 1.431900 -7.125000 0.000000 0.000000 -23.279000 48.387900 -2.048800 -3.716546 -2.634664 -1.189495 89.313983 2.424513 11.314115 -14.098150 27.825589 -3.592700 -0.717109 0.164568 3.333175 -18.879660 -32.679983 10.118200 7.125000 0.000000 0.000000 17.600800 -63.459900 -8.006800 
-13.649962 18.133485 -4.265488 -36.079704 -73.098441 43.262730 -0.505611 -1.479290 -1.666434 -0.568770 -3.493955 -24.973809 6.302671 15.416810 47.073679 0.278660 0.181735 4.934516 0.610500 -5.001100 -13.911600 -0.200029 0.928165 -1.535621 34.741354 8.045981 -7.056871 -0.225759 -5.507850 13.910584 1.993148 -13.376687 -4.106573 -0.898800 -6.042300 16.907200 7.797950 -1.382870 1.710819 1.948136 -1.526343 -4.958604 4.822971 -1.189310 -1.186597 -15.189848 -15.460119 -7.312539 11.717066 -19.037695 1.990035 4.897400 -9.313000 6.528700 6.672967 2.363875 1.144534 -98.487593 15.964199 -15.873561 6.620398 -22.368434 -1.979755 1.524353 2.845698 37.048008 3.759974 22.806714 1.437100 -7.125000 0.000000 0.000000 -23.120500 48.193000 -1.917100 -3.703845 -2.644529 -1.175245 89.527741 2.343438 10.164760 -13.277670 26.665673 -3.207648 -0.724336 0.179010 4.134633 -18.596364 -32.561809 9.916800 7.125000 0.000000 0.000000 17.830000 -63.273300 -8.036500 
-13.755540 18.130993 -4.235580 -36.408730 -73.255630 43.696872 -0.508829 -1.498417 -1.693576 -0.350589 -3.590412 -25.465562 6.043819 15.179930 46.060194 0.174561 0.810347 4.460490 0.585500 -4.899200 -13.621200 -0.196257 0.923398 -1.524466 34.768601 8.080923 -6.720295 -0.223724 -5.499577 13.898703 1.978299 -13.284870 -4.380267 -0.862100 -5.920900 16.555100 7.813512 -1.346132 1.788657 1.928792 -1.468692 -4.948773 4.744813 -1.164387 -1.190365 -15.184049 -15.467438 -7.284571 11.758112 -19.053588 1.988360 4.910800 -9.320200 6.527900 6.626842 2.372479 1.151285 -98.361724 16.129537 -14.875008 6.997304 -22.916519 -2.058131 1.454772 2.853894 36.040819 3.854671 22.591408 1.457100 -7.125000 0.000000 0.000000 -22.942700 48.032400 -1.805800 -3.690600 -2.655222 -1.162432 89.696263 2.259697 9.037175 -12.523955 25.567580 -2.866954 -0.730429 0.194323 4.998035 -18.317398 -32.396779 9.707500 7.125000 0.000000 0.000000 18.011800 -63.043800 -8.024200 
-13.861118 18.128201 -4.204674 -36.736346 -73.415010 44.136472 -0.514264 -1.518349 -1.719690 -0.136411 -3.692215 -25.911568 5.757546 14.909865 44.932094 0.074033 1.408487 4.065512 0.559900 -4.793000 -13.319100 -0.191995 0.918363 -1.512948 34.782258 8.113809 -6.388270 -0.221489 -5.490104 13.883819 1.961859 -13.187047 -4.649495 -0.825200 -5.795600 16.192600 7.830904 -1.311043 1.857682 1.909211 -1.414143 -4.941522 4.664131 -1.140887 -1.197040 -15.176026 -15.471473 -7.256131 11.793192 -19.065924 1.995008 4.922200 -9.325900 6.528700 6.581550 2.382271 1.156428 -98.229165 16.268160 -13.931437 7.375804 -23.453416 -2.139190 1.394023 2.858736 35.067958 3.994374 22.406092 1.491300 -7.125000 0.000000 0.000000 -22.743200 47.901100 -1.711500 -3.677210 -2.666630 -1.151180 89.821742 2.170478 7.936371 -11.835245 24.536210 -2.567156 -0.735279 0.210145 5.915940 -18.034454 -32.198452 9.489200 7.125000 0.000000 0.000000 18.167400 -62.782200 -7.984200 
-13.966895 18.125011 -4.172672 -37.061348 -73.574568 44.580017 -0.521799 -1.539116 -1.744923 0.075186 -3.802386 -26.313506 5.448917 14.608130 43.701865 -0.021712 1.970635 3.744636 0.535300 -4.688300 -13.021600 -0.187285 0.913099 -1.501102 34.783019 8.143500 -6.062170 -0.219070 -5.480055 13.867027 1.943730 -13.083810 -4.913085 -0.788100 -5.667100 15.821500 7.850967 -1.278893 1.917845 1.889843 -1.364364 -4.936693 4.581470 -1.119490 -1.206216 -15.165997 -15.471651 -7.229138 11.822242 -19.073601 2.009925 4.931800 -9.329400 6.531300 6.537098 2.393124 1.160120 -98.090641 16.381139 -13.036596 7.756044 -23.981091 -2.223207 1.340434 2.862465 34.121944 4.163433 22.254949 1.535300 -7.125000 0.000000 0.000000 -22.535500 47.801000 -1.636000 -3.663711 -2.678651 -1.141620 89.905449 2.076047 6.870679 -11.206963 23.571695 -2.303993 -0.738777 0.226420 6.876509 -17.750723 -31.964764 9.263900 7.125000 0.000000 0.000000 18.292800 -62.487300 -7.914300 
